<svg xmlns="http://www.w3.org/2000/svg" xmlns:xlink="http://www.w3.org/1999/xlink" width="50" height="50" viewBox="0 0 50 50">
  <defs>
    <clipPath id="clip-Weibo">
      <rect width="50" height="50"/>
    </clipPath>
  </defs>
  <g id="Weibo" clip-path="url(#clip-Weibo)">
    <rect width="50" height="50" fill="rgba(0,0,0,0)"/>
    <path id="Icon_awesome-weibo" data-name="Icon awesome-weibo" d="M28.617,12.488a2.278,2.278,0,0,0-2.63-2.932,1.18,1.18,0,0,1-.5-2.306,4.629,4.629,0,0,1,5.379,5.963,1.182,1.182,0,0,1-2.25-.724ZM15.1,31.409C7.629,31.409,0,27.795,0,21.825c0-3.115,1.969-6.708,5.365-10.1,7.01-7.01,14.287-7.095,12.206-.4-.281.921.865.4.865.422,5.59-2.363,9.879-1.181,8.016,3.614-.26.661.077.766.584.921C36.577,19.252,29.482,31.409,15.1,31.409Zm10.1-10.287c-.38-3.916-5.52-6.609-11.489-6.026-5.963.6-10.462,4.24-10.083,8.156s5.52,6.609,11.489,6.026C21.087,28.673,25.587,25.038,25.207,21.122ZM24.462,2.468a1.378,1.378,0,0,0,.584,2.693A6.769,6.769,0,0,1,32.9,13.88a1.381,1.381,0,0,0,2.63.844A9.529,9.529,0,0,0,24.462,2.468Zm-5.52,21.867a6.425,6.425,0,0,1-7.671,3.255,4.433,4.433,0,0,1-2.834-6.307,6.527,6.527,0,0,1,7.27-3.171A4.438,4.438,0,0,1,18.942,24.335Zm-6.068-2.109a2.272,2.272,0,0,0-2.672.907,1.588,1.588,0,0,0,.6,2.391,2.272,2.272,0,0,0,2.749-.907A1.593,1.593,0,0,0,12.874,22.226Zm2.292-.942a.889.889,0,0,0-1.005.38.61.61,0,0,0,.26.907.863.863,0,0,0,1.027-.38.615.615,0,0,0-.281-.907Z" transform="translate(7 7.748)" fill="#fff"/>
  </g>
</svg>
