<svg xmlns="http://www.w3.org/2000/svg" xmlns:xlink="http://www.w3.org/1999/xlink" width="50" height="50" viewBox="0 0 50 50">
  <defs>
    <clipPath id="clip-Weixin">
      <rect width="50" height="50"/>
    </clipPath>
  </defs>
  <g id="Weixin" clip-path="url(#clip-Weixin)">
    <rect width="50" height="50" fill="rgba(0,0,0,0)"/>
    <path id="Icon_awesome-weixin" data-name="Icon awesome-weixin" d="M27.084,11.784a10.268,10.268,0,0,1,1.322.077C27.239,6.349,21.326,2.25,14.6,2.25,7.066,2.25.914,7.369.914,13.88c0,3.755,2.06,6.855,5.477,9.253l-1.357,4.12,4.781-2.4a23.465,23.465,0,0,0,4.8.682c.436,0,.851-.021,1.287-.056a9.672,9.672,0,0,1-.436-2.869c-.007-5.97,5.126-10.828,11.623-10.828Zm-7.348-3.72a1.613,1.613,0,0,1,1.7,1.716,1.609,1.609,0,0,1-1.7,1.7,1.912,1.912,0,0,1-2.06-1.7A1.922,1.922,0,0,1,19.737,8.065Zm-9.591,3.417a1.925,1.925,0,0,1-2.06-1.7,1.921,1.921,0,0,1,2.06-1.716A1.613,1.613,0,0,1,11.862,9.78a1.606,1.606,0,0,1-1.716,1.7Zm29.44,10.976c0-5.477-5.477-9.935-11.63-9.935-6.518,0-11.63,4.458-11.63,9.935s5.119,9.935,11.63,9.935a17.8,17.8,0,0,0,4.12-.7l3.755,2.06L34.791,30.34C37.547,28.273,39.586,25.538,39.586,22.458ZM24.18,20.735a1.368,1.368,0,0,1,0-2.735A1.56,1.56,0,0,1,25.9,19.357,1.56,1.56,0,0,1,24.18,20.735Zm7.53,0a1.368,1.368,0,0,1,0-2.735,1.574,1.574,0,0,1,1.716,1.357A1.564,1.564,0,0,1,31.711,20.735Z" transform="translate(5.086 6.75)" fill="#fff"/>
  </g>
</svg>
