<svg xmlns="http://www.w3.org/2000/svg" xmlns:xlink="http://www.w3.org/1999/xlink" width="50" height="50" viewBox="0 0 50 50">
  <defs>
    <clipPath id="clip-iPhone_X_XS_11_Pro_3">
      <rect width="50" height="50"/>
    </clipPath>
  </defs>
  <g id="iPhone_X_XS_11_Pro_3" data-name="iPhone X, XS, 11 Pro – 3" clip-path="url(#clip-iPhone_X_XS_11_Pro_3)">
    <rect width="50" height="50" fill="rgba(255,255,255,0)"/>
    <g id="Icon_ionic-ios-menu" data-name="Icon ionic-ios-menu" transform="translate(7.5 1.875)">
      <path id="Path_6" data-name="Path 6" d="M30.375,12.375H5.625A1.128,1.128,0,0,1,4.5,11.25h0a1.128,1.128,0,0,1,1.125-1.125h24.75A1.128,1.128,0,0,1,31.5,11.25h0A1.128,1.128,0,0,1,30.375,12.375Z"/>
      <path id="Path_7" data-name="Path 7" d="M30.375,19.125H5.625A1.128,1.128,0,0,1,4.5,18h0a1.128,1.128,0,0,1,1.125-1.125h24.75A1.128,1.128,0,0,1,31.5,18h0A1.128,1.128,0,0,1,30.375,19.125Z" transform="translate(0 4.995)"/>
      <path id="Path_8" data-name="Path 8" d="M30.375,25.875H5.625A1.128,1.128,0,0,1,4.5,24.75h0a1.128,1.128,0,0,1,1.125-1.125h24.75A1.128,1.128,0,0,1,31.5,24.75h0A1.128,1.128,0,0,1,30.375,25.875Z" transform="translate(0 9.991)"/>
    </g>
  </g>
</svg>
